<?xml version="1.0" encoding="utf-8"?>
<!-- Generator: Adobe Illustrator 27.0.1, SVG Export Plug-In . SVG Version: 6.00 Build 0)  -->
<svg version="1.1" id="Layer_1" xmlns="http://www.w3.org/2000/svg" xmlns:xlink="http://www.w3.org/1999/xlink" x="0px" y="0px"
	 viewBox="0 0 595.28 841.89" style="enable-background:new 0 0 595.28 841.89;" xml:space="preserve">
<g>
	<g>
		<g>
			<g>
				<circle cx="437.86" cy="335.3" r="10"/>
			</g>
			<g>
				<circle cx="408.76" cy="335.3" r="10"/>
			</g>
			<g>
				<circle cx="379.66" cy="335.3" r="10"/>
			</g>
			<g>
				<circle cx="350.56" cy="335.3" r="10"/>
			</g>
			<g>
				<circle cx="321.46" cy="335.3" r="10"/>
			</g>
		</g>
	</g>
	<g>
		<g>
			<g>
				<circle cx="379.77" cy="335.57" r="10"/>
			</g>
			<g>
				<circle cx="379.77" cy="363.87" r="10"/>
			</g>
			<g>
				<circle cx="379.77" cy="392.17" r="10"/>
			</g>
			<g>
				<circle cx="379.77" cy="420.47" r="10"/>
			</g>
			<g>
				<circle cx="379.77" cy="448.77" r="10"/>
			</g>
			<g>
				<circle cx="379.77" cy="477.07" r="10"/>
			</g>
			<g>
				<circle cx="379.77" cy="505.37" r="10"/>
			</g>
		</g>
	</g>
	<g>
		<g>
			<g>
				<g>
					<circle cx="276.5" cy="335.6" r="10"/>
				</g>
				<g>
					<circle cx="276.5" cy="365.2" r="10"/>
				</g>
				<g>
					<circle cx="276.5" cy="394.8" r="10"/>
				</g>
				<g>
					<circle cx="276.5" cy="424.4" r="10"/>
				</g>
				<g>
					<circle cx="275.27" cy="453.92" r="10"/>
				</g>
				<g>
					<circle cx="267.04" cy="481.84" r="10"/>
				</g>
				<g>
					<circle cx="245.73" cy="501.25" r="10"/>
				</g>
				<g>
					<circle cx="216.81" cy="506.55" r="10"/>
				</g>
				<g>
					<circle cx="188.07" cy="500.7" r="10"/>
				</g>
				<g>
					<circle cx="166.4" cy="481.7" r="10"/>
				</g>
				<g>
					<circle cx="158.03" cy="453.88" r="10"/>
				</g>
				<g>
					<circle cx="157.18" cy="424.34" r="10"/>
				</g>
				<g>
					<circle cx="157.18" cy="394.74" r="10"/>
				</g>
				<g>
					<circle cx="157.18" cy="365.14" r="10"/>
				</g>
				<g>
					<circle cx="157.18" cy="335.54" r="10"/>
				</g>
			</g>
		</g>
	</g>
</g>
</svg>
