<?xml version="1.0" encoding="utf-8"?>
<!-- Generator: Adobe Illustrator 22.1.0, SVG Export Plug-In . SVG Version: 6.00 Build 0)  -->
<svg version="1.1" id="Layer_1" xmlns="http://www.w3.org/2000/svg" xmlns:xlink="http://www.w3.org/1999/xlink" x="0px" y="0px"
	 viewBox="0 0 1280 800" style="enable-background:new 0 0 1280 800;" xml:space="preserve">
<g>
			<g>
				<circle cx="281.8" cy="89.5" r="7"/>
			</g>
			<g>
				<circle cx="261.4" cy="89.5" r="7"/>
			</g>
			<g>
				<circle cx="241.1" cy="89.5" r="7"/>
			</g>
			<g>
				<circle cx="220.7" cy="89.5" r="7"/>
			</g>
			<g>
				<circle cx="200.3" cy="89.5" r="7"/>
			</g>
	</g>
	<g>
			<g>
				<circle cx="241.1" cy="89.7" r="7"/>
			</g>
			<g>
				<circle cx="241.1" cy="109.5" r="7"/>
			</g>
			<g>
				<circle cx="241.1" cy="129.3" r="7"/>
			</g>
			<g>
				<circle cx="241.1" cy="149.1" r="7"/>
			</g>
			<g>
				<circle cx="241.1" cy="168.9" r="7"/>
			</g>
			<g>
				<circle cx="241.1" cy="188.8" r="7"/>
			</g>
			<g>
				<circle cx="241.1" cy="208.6" r="7"/>
			</g>
	</g>
	<g>
				<g>
					<circle cx="168.8" cy="89.7" r="7"/>
				</g>
				<g>
					<circle cx="168.8" cy="110.5" r="7"/>
				</g>
				<g>
					<circle cx="168.8" cy="131.2" r="7"/>
				</g>
				<g>
					<circle cx="168.8" cy="151.9" r="7"/>
				</g>
				<g>
					<circle cx="168" cy="172.6" r="7"/>
				</g>
				<g>
					<circle cx="162.2" cy="192.1" r="7"/>
				</g>
				<g>
					<circle cx="147.3" cy="205.7" r="7"/>
				</g>
				<g>
					<circle cx="127.1" cy="209.4" r="7"/>
				</g>
				<g>
					<circle cx="106.9" cy="205.3" r="7"/>
				</g>
				<g>
					<circle cx="91.8" cy="192" r="7"/>
				</g>
				<g>
					<circle cx="85.9" cy="172.5" r="7"/>
				</g>
				<g>
					<circle cx="85.3" cy="151.8" r="7"/>
				</g>
				<g>
					<circle cx="85.3" cy="131.1" r="7"/>
				</g>
				<g>
					<circle cx="85.3" cy="110.4" r="7"/>
				</g>
				<g>
					<circle cx="85.3" cy="89.7" r="7"/>
				</g>
</g>
</svg>
