<svg version="1.1" id="ut_monogram" xmlns="http://www.w3.org/2000/svg" xmlns:xlink="http://www.w3.org/1999/xlink" x="0px"
	 y="0px" viewBox="0 0 800 800" style="enable-background:new 0 0 800 800;" xml:space="preserve">
     <g id="ut_u">
        <circle cx="503" cy="250" r="10"/>
        <circle cx="503.2" cy="286.4" r="10"/>
        <circle cx="433" cy="558" r="10"/>
        <circle cx="323" cy="214" r="10"/>
        <circle cx="288.9" cy="286.4" r="10"/>
        <circle cx="395" cy="189" r="10"/>
        <circle cx="467" cy="214" r="10"/>
        <circle cx="503" cy="513" r="10"/>
        <circle cx="359" cy="556" r="10"/>
        <circle cx="271.2" cy="340.1" r="10"/>
        <circle cx="460" cy="538" r="10"/>
        <circle cx="496" cy="312.7" r="10"/>
        <circle cx="521" cy="340.3" r="10"/>
        <circle cx="539" cy="366.9" r="10"/>
        <circle cx="530" cy="395.5" r="10"/>
     </g>
     <g id="ut_u">
        <circle cx="504.8" cy="432" r="10"/>
        <circle cx="522.5" cy="467.9" r="10"/>
        <circle cx="395" cy="576" r="10"/>
        <circle cx="296.3" cy="314.6" r="10"/>
        <circle cx="332" cy="538" r="10"/>
        <circle cx="289" cy="513" r="10"/>
        <circle cx="268" cy="469" r="10"/>
        <circle cx="287" cy="432" r="10"/>
        <circle cx="262.4" cy="395.6" r="10"/>
        <circle cx="252.7" cy="367.2" r="10"/>
        <circle cx="289" cy="250" r="10"/>
     </g>
</svg>
