<?xml version="1.0" encoding="utf-8"?>
<!-- Generator: Adobe Illustrator 22.1.0, SVG Export Plug-In . SVG Version: 6.00 Build 0)  -->
<svg version="1.1" id="ut_monogram" xmlns="http://www.w3.org/2000/svg" xmlns:xlink="http://www.w3.org/1999/xlink" x="0px"
	 y="0px" viewBox="0 0 800 800" style="enable-background:new 0 0 800 800;" xml:space="preserve">
	 <g id="ut_u">
		<circle cx="379" cy="314.7" r="10"/>
		<circle cx="379" cy="344.3" r="10"/>
		<circle cx="379" cy="373.9" r="10"/>
		<circle cx="379" cy="403.5" r="10"/>
		<circle cx="377.8" cy="433" r="10"/>
		<circle cx="369.5" cy="460.9" r="10"/>
		<circle cx="348.2" cy="480.3" r="10"/>
		<circle cx="319.3" cy="485.6" r="10"/>
		<circle cx="290.6" cy="479.8" r="10"/>
		<circle cx="268.9" cy="460.8" r="10"/>
		<circle cx="260.5" cy="433" r="10"/>
		<circle cx="259.7" cy="403.4" r="10"/>
		<circle cx="259.7" cy="373.8" r="10"/>
		<circle cx="259.7" cy="344.2" r="10"/>
		<circle cx="259.7" cy="314.6" r="10"/>
	</g>
	<g id="ut_t">
		<circle cx="540.3" cy="314.4" r="10"/>
		<circle cx="511.2" cy="314.4" r="10"/>
		<circle cx="482.1" cy="314.4" r="10"/>
		<circle cx="453" cy="314.4" r="10"/>
		<circle cx="423.9" cy="314.4" r="10"/>
		<circle cx="482.2" cy="342.9" r="10"/>
		<circle cx="482.2" cy="371.2" r="10"/>
		<circle cx="482.2" cy="399.5" r="10"/>
		<circle cx="482.2" cy="427.8" r="10"/>
		<circle cx="482.2" cy="456.1" r="10"/>
		<circle cx="482.2" cy="484.4" r="10"/>
	</g>
</svg>
